<!-- Generated by IcoMoon.io -->
<svg version="1.1" xmlns="http://www.w3.org/2000/svg" width="32" height="32" viewBox="0 0 32 32">
<title>bookmark-plus_2</title>
<path d="M4.912 2.219c-0.612 0-1.106 0.494-1.106 1.106v24.531l8.869-5.912 8.869 5.913v-11.231c0-0.613 0.494-1.106 1.106-1.106s1.106 0.494 1.106 1.106v15.375l-11.081-7.387-11.088 7.387v-28.675c0-1.837 1.494-3.325 3.325-3.325h8.869c0.613 0 1.106 0.494 1.106 1.106s-0.494 1.106-1.106 1.106h-8.869zM24.869 0c0.613 0 1.106 0.494 1.106 1.106v4.431c0 0.612-0.494 1.106-1.106 1.106h-4.431c-0.613 0-1.106-0.494-1.106-1.106s0.494-1.106 1.106-1.106h3.325v-3.325c0-0.613 0.494-1.106 1.106-1.106z"></path>
<path d="M23.762 5.544c0-0.612 0.494-1.106 1.106-1.106h4.431c0.613 0 1.106 0.494 1.106 1.106s-0.494 1.106-1.106 1.106h-3.325v3.325c0 0.613-0.494 1.106-1.106 1.106s-1.106-0.494-1.106-1.106v-4.431z"></path>
</svg>
