<!-- Generated by IcoMoon.io -->
<svg version="1.1" xmlns="http://www.w3.org/2000/svg" width="32" height="32" viewBox="0 0 32 32">
<title>bookmarks</title>
<path d="M24 3h-12c-1.105 0-2 0.895-2 2v0 2h-2c-1.105 0-2 0.895-2 2v0 19c0 0.552 0.448 1 1 1v0c0.22-0.001 0.424-0.071 0.591-0.19l-0.003 0.002 6.412-4.587 6.425 4.587c0.16 0.119 0.361 0.19 0.578 0.19 0.168 0 0.326-0.043 0.464-0.117l-0.005 0.003c0.32-0.173 0.535-0.505 0.538-0.887v-4.913l2.425 1.725c0.158 0.117 0.356 0.188 0.571 0.188 0.001 0 0.003 0 0.004 0h-0c0.552 0 1-0.448 1-1v0-19c0-1.105-0.895-2-2-2v0zM20 26.063l-5.425-3.875c-0.158-0.117-0.356-0.188-0.571-0.188-0.001 0-0.003 0-0.004 0h0c-0.22 0.001-0.424 0.071-0.591 0.19l0.003-0.002-5.412 3.875v-17.063h12zM24 22.063l-2-1.438v-11.625c0-1.105-0.895-2-2-2v0h-8v-2h12z"></path>
</svg>
