<!-- Generated by IcoMoon.io -->
<svg version="1.1" xmlns="http://www.w3.org/2000/svg" width="56" height="32" viewBox="0 0 56 32">
<title>medium-seeklogocom</title>
<path d="M15.825 0c8.74 0 15.824 7.134 15.824 15.933s-7.085 15.933-15.824 15.933c-8.739 0-15.825-7.133-15.825-15.933s7.085-15.933 15.825-15.933zM41.096 0.933c4.37 0 7.912 6.715 7.912 15h0.001c0 8.283-3.542 15-7.912 15s-7.912-6.717-7.912-15c0-8.283 3.542-15 7.912-15zM53.327 2.496c1.537 0 2.783 6.016 2.783 13.438 0 7.419-1.246 13.438-2.783 13.438s-2.782-6.017-2.782-13.438c0-7.421 1.246-13.438 2.782-13.438z"></path>
</svg>
