<svg aria-hidden="true" style="position: absolute; width: 0; height: 0; overflow: hidden;" version="1.1" xmlns="http://www.w3.org/2000/svg" xmlns:xlink="http://www.w3.org/1999/xlink">
<defs>
<symbol id="icon-bookmarks" viewBox="0 0 32 32">
<path d="M24 3h-12c-1.105 0-2 0.895-2 2v0 2h-2c-1.105 0-2 0.895-2 2v0 19c0 0.552 0.448 1 1 1v0c0.22-0.001 0.424-0.071 0.591-0.19l-0.003 0.002 6.412-4.587 6.425 4.587c0.16 0.119 0.361 0.19 0.578 0.19 0.168 0 0.326-0.043 0.464-0.117l-0.005 0.003c0.32-0.173 0.535-0.505 0.538-0.887v-4.913l2.425 1.725c0.158 0.117 0.356 0.188 0.571 0.188 0.001 0 0.003 0 0.004 0h-0c0.552 0 1-0.448 1-1v0-19c0-1.105-0.895-2-2-2v0zM20 26.063l-5.425-3.875c-0.158-0.117-0.356-0.188-0.571-0.188-0.001 0-0.003 0-0.004 0h0c-0.22 0.001-0.424 0.071-0.591 0.19l0.003-0.002-5.412 3.875v-17.063h12zM24 22.063l-2-1.438v-11.625c0-1.105-0.895-2-2-2v0h-8v-2h12z"></path>
</symbol>
<symbol id="icon-bookmark-plus_2" viewBox="0 0 32 32">
<path d="M4.912 2.219c-0.612 0-1.106 0.494-1.106 1.106v24.531l8.869-5.912 8.869 5.913v-11.231c0-0.613 0.494-1.106 1.106-1.106s1.106 0.494 1.106 1.106v15.375l-11.081-7.387-11.088 7.387v-28.675c0-1.837 1.494-3.325 3.325-3.325h8.869c0.613 0 1.106 0.494 1.106 1.106s-0.494 1.106-1.106 1.106h-8.869zM24.869 0c0.613 0 1.106 0.494 1.106 1.106v4.431c0 0.612-0.494 1.106-1.106 1.106h-4.431c-0.613 0-1.106-0.494-1.106-1.106s0.494-1.106 1.106-1.106h3.325v-3.325c0-0.613 0.494-1.106 1.106-1.106z"></path>
<path d="M23.762 5.544c0-0.612 0.494-1.106 1.106-1.106h4.431c0.613 0 1.106 0.494 1.106 1.106s-0.494 1.106-1.106 1.106h-3.325v3.325c0 0.613-0.494 1.106-1.106 1.106s-1.106-0.494-1.106-1.106v-4.431z"></path>
</symbol>
<symbol id="icon-medium-seeklogocom" viewBox="0 0 56 32">
<path d="M15.825 0c8.74 0 15.824 7.134 15.824 15.933s-7.085 15.933-15.824 15.933c-8.739 0-15.825-7.133-15.825-15.933s7.085-15.933 15.825-15.933zM41.096 0.933c4.37 0 7.912 6.715 7.912 15h0.001c0 8.283-3.542 15-7.912 15s-7.912-6.717-7.912-15c0-8.283 3.542-15 7.912-15zM53.327 2.496c1.537 0 2.783 6.016 2.783 13.438 0 7.419-1.246 13.438-2.783 13.438s-2.782-6.017-2.782-13.438c0-7.421 1.246-13.438 2.782-13.438z"></path>
</symbol>
<symbol id="icon-bell" viewBox="0 0 24 24">
<path d="M17 8c0 4.011 0.947 6.52 1.851 8h-13.702c0.904-1.48 1.851-3.989 1.851-8 0-1.381 0.559-2.63 1.464-3.536s2.155-1.464 3.536-1.464 2.63 0.559 3.536 1.464 1.464 2.155 1.464 3.536zM19 8c0-1.933-0.785-3.684-2.050-4.95s-3.017-2.050-4.95-2.050-3.684 0.785-4.95 2.050-2.050 3.017-2.050 4.95c0 6.127-2.393 8.047-2.563 8.174-0.453 0.308-0.573 0.924-0.269 1.381 0.192 0.287 0.506 0.443 0.832 0.445h18c0.552 0 1-0.448 1-1 0-0.339-0.168-0.638-0.429-0.821-0.176-0.13-2.571-2.050-2.571-8.179zM12.865 20.498c-0.139 0.239-0.359 0.399-0.608 0.465s-0.52 0.037-0.759-0.101c-0.162-0.094-0.283-0.222-0.359-0.357-0.274-0.48-0.884-0.647-1.364-0.373s-0.647 0.884-0.373 1.364c0.25 0.439 0.623 0.823 1.093 1.096 0.716 0.416 1.535 0.501 2.276 0.304s1.409-0.678 1.824-1.394c0.277-0.478 0.114-1.090-0.363-1.367s-1.090-0.114-1.367 0.363z"></path>
</symbol>
<symbol id="icon-dot-single" viewBox="0 0 20 20">
<path d="M7.8 10c0 1.215 0.986 2.2 2.201 2.2s2.199-0.986 2.199-2.2c0-1.215-0.984-2.199-2.199-2.199s-2.201 0.984-2.201 2.199z"></path>
</symbol>
<symbol id="icon-dots-three-horizontal" viewBox="0 0 20 20">
<path d="M10.001 7.8c-1.215 0-2.201 0.985-2.201 2.2s0.986 2.2 2.201 2.2c1.215 0 2.199-0.985 2.199-2.2s-0.984-2.2-2.199-2.2zM3.001 7.8c-1.215 0-2.201 0.985-2.201 2.2s0.986 2.2 2.201 2.2c1.215 0 2.199-0.986 2.199-2.2s-0.984-2.2-2.199-2.2zM17.001 7.8c-1.215 0-2.201 0.985-2.201 2.2s0.986 2.2 2.201 2.2c1.215 0 2.199-0.985 2.199-2.2s-0.984-2.2-2.199-2.2z"></path>
</symbol>
<symbol id="icon-plus" viewBox="0 0 20 20">
<path d="M16 10c0 0.553-0.048 1-0.601 1h-4.399v4.399c0 0.552-0.447 0.601-1 0.601s-1-0.049-1-0.601v-4.399h-4.399c-0.552 0-0.601-0.447-0.601-1s0.049-1 0.601-1h4.399v-4.399c0-0.553 0.447-0.601 1-0.601s1 0.048 1 0.601v4.399h4.399c0.553 0 0.601 0.447 0.601 1z"></path>
</symbol>
<symbol id="icon-star" viewBox="0 0 20 20">
<path d="M10 1.3l2.388 6.722h6.412l-5.232 3.948 1.871 6.928-5.439-4.154-5.438 4.154 1.87-6.928-5.233-3.948h6.412l2.389-6.722z"></path>
</symbol>
<symbol id="icon-twitter" viewBox="0 0 20 20">
<path d="M17.316 6.246c0.008 0.162 0.011 0.326 0.011 0.488 0 4.99-3.797 10.742-10.74 10.742-2.133 0-4.116-0.625-5.787-1.697 0.296 0.035 0.596 0.053 0.9 0.053 1.77 0 3.397-0.604 4.688-1.615-1.651-0.031-3.046-1.121-3.526-2.621 0.23 0.043 0.467 0.066 0.71 0.066 0.345 0 0.679-0.045 0.995-0.131-1.727-0.348-3.028-1.873-3.028-3.703 0-0.016 0-0.031 0-0.047 0.509 0.283 1.092 0.453 1.71 0.473-1.013-0.678-1.68-1.832-1.68-3.143 0-0.691 0.186-1.34 0.512-1.898 1.861 2.285 4.644 3.787 7.781 3.945-0.064-0.277-0.097-0.564-0.097-0.861 0-2.084 1.689-3.773 3.774-3.773 1.086 0 2.067 0.457 2.756 1.191 0.859-0.17 1.667-0.484 2.397-0.916-0.282 0.881-0.881 1.621-1.66 2.088 0.764-0.092 1.49-0.293 2.168-0.594-0.506 0.758-1.146 1.422-1.884 1.953z"></path>
</symbol>
<symbol id="icon-search" viewBox="0 0 32 32">
<path d="M31.008 27.231l-7.58-6.447c-0.784-0.705-1.622-1.029-2.299-0.998 1.789-2.096 2.87-4.815 2.87-7.787 0-6.627-5.373-12-12-12s-12 5.373-12 12 5.373 12 12 12c2.972 0 5.691-1.081 7.787-2.87-0.031 0.677 0.293 1.515 0.998 2.299l6.447 7.58c1.104 1.226 2.907 1.33 4.007 0.23s0.997-2.903-0.23-4.007zM12 20c-4.418 0-8-3.582-8-8s3.582-8 8-8 8 3.582 8 8-3.582 8-8 8z"></path>
</symbol>
</defs>
</svg>
